<svg xmlns="http://www.w3.org/2000/svg" width="753.337" height="566.406" viewBox="0 0 753.337 566.406">
  <g id="Group_4213" data-name="Group 4213" transform="translate(-1026.663 -1501.58)">
    <path id="Path_14379" data-name="Path 14379" d="M161.392,608.41S67.583,541.605,40.577,427.9s14.212-251.582,92.389-321.23S351.856,83.927,414.4,142.2l62.539,58.276s59.7,32.691,137.873,29.848,147.822,103.76,166.3,187.62-25.585,194.728-25.585,194.728Z" transform="translate(994.364 1429.727)" fill="#ddecff"/>
    <path id="Path_14380" data-name="Path 14380" d="M118.14,623.767S52.757,588.234,35.7,505.794,92.554,348.021,99.661,306.8s-8.527-92.389,56.856-132.186,181.935-25.585,226-35.535,95.231-78.175,183.355-62.54,173.407,62.54,177.672,164.879S715.113,346.6,747.8,402.034s45.484,93.809,29.85,150.665-48.327,72.49-48.327,72.49Z" transform="translate(994.977 1431.427)" fill="#ddecff" style="mix-blend-mode: multiply;isolation: isolate"/>
    <path id="Path_14381" data-name="Path 14381" d="M174.028,516.371c-4.067-4.263-63.719-123.659,2.712-233.1s233.186-96.651,299.617-54.011,98.97,98.074,105.747,156.351-37.96,149.243-37.96,149.243Z" transform="translate(1075.607 1520.344)" fill="#ddecff" style="mix-blend-mode: multiply;isolation: isolate"/>
    <rect id="Rectangle_954" data-name="Rectangle 954" width="93.81" height="55.433" rx="5" transform="translate(1632.152 1780.278)" fill="#60a8ff"/>
    <path id="Path_14382" data-name="Path 14382" d="M417.227,291.045l12.145-28.783h-24.29Z" transform="translate(1261.831 1566.342)" fill="#60a8ff"/>
    <path id="Path_14383" data-name="Path 14383" d="M411.984,248.56h21.937v3.209l10.755-6.2-10.755-6.2v3.209H411.984Z" transform="translate(1266.783 1549.916)" fill="#223a7a"/>
    <path id="Path_14384" data-name="Path 14384" d="M444.676,253.4H422.739V250.2l-10.755,6.2,10.755,6.2v-3.209h21.937Z" transform="translate(1266.783 1557.684)" fill="#fff"/>
    <path id="Path_14385" data-name="Path 14385" d="M410.706,266.961l-1.044.38a33.189,33.189,0,0,1-4.945-7.763,27.856,27.856,0,0,1-1.748-8.991l.763-.318-4.637-11.1a9.093,9.093,0,0,0-2.253,2.554c-2.626,4.436-2.365,11.244.276,17.895s5.463,12.584,10.614,16.314c3.042,2.2,5.647,2.587,7.669,2.267Z" transform="translate(1254.597 1549.771)" fill="#223a7a"/>
    <path id="Path_14386" data-name="Path 14386" d="M406.685,254.659l-1.441.524,4.749,11.366a8.481,8.481,0,0,0,1.434-.62,2.765,2.765,0,0,0,1.249-3.445l-2.48-6.25A2.762,2.762,0,0,0,406.685,254.659Z" transform="translate(1261.947 1560.767)" fill="#223a7a"/>
    <path id="Path_14387" data-name="Path 14387" d="M400.271,238.1a10.981,10.981,0,0,0-1.86.874l4.737,11.337,1.6-.666a2.76,2.76,0,0,0,1.508-3.55l-2.49-6.392A2.754,2.754,0,0,0,400.271,238.1Z" transform="translate(1257.045 1548.891)" fill="#223a7a"/>
    <path id="Path_14388" data-name="Path 14388" d="M149.233,446.783V318.86s-1.422-34.468,16.7-44.418,94.522-4.618,94.522-4.618V446.783Z" transform="translate(1078.244 1570.744)" fill="#1c83ff"/>
    <path id="Path_14389" data-name="Path 14389" d="M235,199.5s-4.62,38.731-6.4,41.929l-1.776,3.2-8.885,6.042S235,274.835,255.968,278.744s19.188-8.527,19.188-8.527l-3.2-6.751,4.265-36.955S238.2,209.1,235,199.5Z" transform="translate(1127.563 1521.314)" fill="#ff9d8c"/>
    <path id="Path_14390" data-name="Path 14390" d="M211.532,233.683l13.858-6.042s8.885,14.569,29.494,23.1,20.965,3.553,22.03,0a13.507,13.507,0,0,0-.356-7.462l1.525-12.441,8.242,2.746,28.61,231.428-73.555,3.554Z" transform="translate(1122.962 1541.502)" fill="#fff"/>
    <path id="Path_14391" data-name="Path 14391" d="M251.05,229.641s4.974,11.49,9.594,38.5,8.883,72.49,9.949,103.76,1.776,102.694,1.776,102.694h92.744c1.067,0,7.462-35.179,7.462-35.179s-40.509-34.705-42.64-40.39c-1.422-3.791-.711-74.029-6.751-106.366s-13.858-38.851-30.205-46.9C276.086,237.426,251.05,229.641,251.05,229.641Z" transform="translate(1151.315 1542.937)" fill="#223a7a"/>
    <path id="Path_14392" data-name="Path 14392" d="M280.288,410.729a.858.858,0,0,1-.859-.859c0-2.54-.452-38.637-.888-73.544s-.888-71.015-.888-73.567a.859.859,0,1,1,1.717,0c0,2.54.452,38.637.886,73.544s.89,71.015.89,73.567A.858.858,0,0,1,280.288,410.729Z" transform="translate(1170.402 1566.082)" fill="#8593b6"/>
    <path id="Path_14393" data-name="Path 14393" d="M171.9,343.508l-.711,49.391H279.212s4.62-41.931,2.842-45.84S171.9,343.508,171.9,343.508Z" transform="translate(1094.016 1624.628)" fill="#223a7a"/>
    <path id="Path_14394" data-name="Path 14394" d="M250.207,238.618a56.461,56.461,0,0,0,15.114,8.117l2.535-21.975s-28.56-13.084-38.25-22.817C231.631,213,236.612,227.657,250.207,238.618Z" transform="translate(1135.93 1523.064)" fill="#8e9bbb"/>
    <path id="Path_14395" data-name="Path 14395" d="M305.086,160.829a76.893,76.893,0,0,1,8.884,28.426c1.42,15.636,0,55.789-12.792,72.845s-39.444,12.083-51.525,1.778c-11.088-9.458-22.032-19.9-24.874-40.51s6.04-59.7,31.27-67.87S305.086,160.829,305.086,160.829Z" transform="translate(1132.102 1487.855)" fill="#ff9d8c"/>
    <path id="Path_14396" data-name="Path 14396" d="M329.057,371.768s-1.254,0-3.16-.052c-.447-.017-.945,0-1.46-.017-1.838-.052-4.07-.1-6.32-.172l-1.511-.052c-2.233-.052-4.139.223-5.925.12h-.052c-.378-.017-.927.034-1.374.051a3.338,3.338,0,0,1-.567.017,8.345,8.345,0,0,1-2.353-.927c-1.443-.653-20.971-5.015-36.857-4.912-15.87.069-30.107,1.151-32.426-.79-2.336-1.975-3.744-21.915,9.807-23.22l16.66,6.32s38.042-4.517,51.988,5.771C329.486,364.194,329.057,371.768,329.057,371.768Z" transform="translate(1140.188 1623.42)" fill="#ff9d8c"/>
    <path id="Path_14397" data-name="Path 14397" d="M288.351,363.874c-.378-.017-.927.034-1.374.051a16.11,16.11,0,0,0-1.46-1.958c-4.294-4.38-14.667-7.213-18.429-8.124a.645.645,0,0,1-.481-.773.66.66,0,0,1,.79-.481c5.479,1.322,17.106,4.706,20.4,10.253C287.9,363,288.179,363.531,288.351,363.874Z" transform="translate(1162.465 1631.142)" fill="#223a7a"/>
    <path id="Path_14398" data-name="Path 14398" d="M293.794,365.61c-.5-.012-1.013-.024-1.51-.053-4.689-8.55-12.359-11-21.838-14.053l-.562-.185a.66.66,0,0,1-.41-.818.651.651,0,0,1,.818-.41l.546.185C280.862,353.493,288.925,356.078,293.794,365.61Z" transform="translate(1164.513 1629.335)" fill="#223a7a"/>
    <path id="Path_14399" data-name="Path 14399" d="M299.308,367.417c-.447-.01-.945-.007-1.46-.019-2.844-5.979-12.254-15.983-24.706-18.315a.644.644,0,0,1-.531-.75.665.665,0,0,1,.751-.515C286.189,350.227,296.534,360.7,299.308,367.417Z" transform="translate(1166.778 1627.719)" fill="#223a7a"/>
    <path id="Path_14400" data-name="Path 14400" d="M240.234,216.606s7.818-3.73,13.326-14.214a40.434,40.434,0,0,0,4.8-19.9s9.949-1.6,24.874,2.842,32.691,10.482,47.616,1.954,14.925-22.209,7.639-27.9c-8.158-6.367-24.34-2.487-24.34-2.487s6.217-6.04,2.842-9.594-15.634,1.067-15.634,1.067-14.925-11.9-43.174-10.484-41.754,21.144-43.353,43.174,6.4,44.062,6.4,44.062Z" transform="translate(1125.174 1477.028)" fill="#223a7a"/>
    <path id="Path_14401" data-name="Path 14401" d="M265.953,186.965c-1.6,3.947-1.561,8.529-1.965,12.718-.314,3.258-.912,7.057,2.073,9.257,1.427,1.051,8.172,3.885,4.7,6.181-1.322.876-3.54.637-5.044.567-1.037-.048-2.085-.093-3.121-.17-1.115-.082-2.207-.419-3.322-.424a.649.649,0,0,0-.325,1.2,14.028,14.028,0,0,0,6.516,1.551,9.854,9.854,0,0,0,5.395-.95,3.862,3.862,0,0,0,2.463-2.765c.208-1.549-.953-2.939-2.121-3.8-1.345-1-2.992-1.46-4.349-2.43-1.882-1.348-1.728-3.617-1.6-5.716.318-5.053,1.48-10.018,1.932-15.047.069-.769-1-.769-1.24-.168Z" transform="translate(1156.768 1512.008)" fill="#8e9bbb"/>
    <path id="Path_14402" data-name="Path 14402" d="M274.673,196.238c-.531,3-2.708,5.113-4.867,4.732s-3.478-3.119-2.947-6.114,2.708-5.115,4.867-4.733S275.2,193.243,274.673,196.238Z" transform="translate(1162.574 1514.551)" fill="#223a7a"/>
    <path id="Path_14403" data-name="Path 14403" d="M259.088,195c-.481,3.232-2.758,5.57-5.085,5.225s-3.827-3.248-3.346-6.478,2.758-5.57,5.087-5.225S259.569,191.773,259.088,195Z" transform="translate(1150.969 1513.412)" fill="#223a7a"/>
    <path id="Path_14404" data-name="Path 14404" d="M268.183,188.258c1.659.28,3.335-.007,5.01.112.4.029.8.088,1.2.125.285.028-.532-.084-.136-.017.086.014.172.026.258.041.21.038.419.081.625.131.357.088.7.222,1.06.3a4.078,4.078,0,0,0,1.012.131c.182-.024.366-.048.548-.074l-.345.062a3.314,3.314,0,0,0,.68-.072,1.847,1.847,0,0,0,1.274-2.245,2.144,2.144,0,0,0-.362-.725c-.07-.093-.143-.185-.216-.277l.2.23c-.07-.1-.144-.2-.222-.292a1.071,1.071,0,0,0-.379-.38c-.132-.1-.265-.21-.4-.306a4.884,4.884,0,0,0-1.541-.618,12.543,12.543,0,0,0-3.054-.392,21.224,21.224,0,0,0-3.023.24,5.811,5.811,0,0,0-2.592.958,1.714,1.714,0,0,0-.8,1.671,1.65,1.65,0,0,0,1.2,1.395Z" transform="translate(1162.734 1510.185)" fill="#223a7a"/>
    <path id="Path_14405" data-name="Path 14405" d="M262.978,184.522a6.988,6.988,0,0,0-.694-.359c-.2-.093-.752-.38-.337-.153-.151-.082-.3-.167-.455-.244a10.389,10.389,0,0,0-2.147-.768,14.241,14.241,0,0,0-4.991-.344,11.617,11.617,0,0,0-4.931,1.542,3.146,3.146,0,0,0-.62.44c-.122.155-.242.311-.359.469l.1-.155a1.747,1.747,0,0,0-.745,1.448,1.443,1.443,0,0,0,.768,1.278,2.176,2.176,0,0,0,1.726.015h-.9a3.224,3.224,0,0,0,1.338-.014c.019,0,.479-.118.175-.055-.285.06.484-.058.568-.07s.632-.067.067-.012c.1-.01.208-.024.311-.036.27-.034.536-.067.805-.088,1.173-.094,2.343-.146,3.517-.185,1.091-.036,2.2-.045,3.291,0,.467.019.933.036,1.4.048.264.007.151.048-.027-.009.094.031.2.048.292.076.194.053.385.117.574.189a1.636,1.636,0,0,0,1.946-.957,1.656,1.656,0,0,0-.675-2.061Z" transform="translate(1148.984 1509.167)" fill="#223a7a"/>
    <path id="Path_14406" data-name="Path 14406" d="M267.393,215.778a16.07,16.07,0,0,1,8.028-7.227c-2.978-.3-17.034-1.6-20.581.41-3.974,2.255.733,11.315,8.952,11.77a11.229,11.229,0,0,0,2.4-.139A11.864,11.864,0,0,1,267.393,215.778Z" transform="translate(1153.006 1527.308)" fill="#223a7a"/>
    <path id="Path_14407" data-name="Path 14407" d="M223.739,201.958s1.422,5.508,9.594,11.906,20.019,11.074,20.019,11.074l.946-4.146s-12.259-5.329-17.944-11.193-6.4-9.061-6.4-9.061Z" transform="translate(1131.72 1522.056)" fill="#dee1eb"/>
    <path id="Path_14408" data-name="Path 14408" d="M244.706,210.551a10.273,10.273,0,0,1,10.707,8.259c.459,3.365-2.7,7.136-10.1,3.823C236.134,218.517,238.13,210.857,244.706,210.551Z" transform="translate(1142.734 1529.231)" fill="#223a7a"/>
    <path id="Path_14409" data-name="Path 14409" d="M232.9,205.817s2.841-20.421,16.524-34.291c26.118-26.472,48.327-24.873,48.327-24.873s-.179-3.732-8.529-6.575c-7.84-2.669-11.37-1.243-11.37-1.243s-21.5,1.776-39.621,21.853-20.077,45.661-20.077,45.661Z" transform="translate(1127.712 1477.512)" fill="#dee1eb"/>
    <path id="Path_14410" data-name="Path 14410" d="M237.046,176.4c-17.11-2.9-26.65,10.482-27.361,23.985s9.1,23.768,22.209,22.743C261.388,220.813,258.012,179.949,237.046,176.4Z" transform="translate(1121.611 1504.447)" fill="#fff"/>
    <path id="Path_14411" data-name="Path 14411" d="M225.714,206.907A11.657,11.657,0,0,1,215.2,200.64a12.993,12.993,0,0,1,.5-13.427.644.644,0,0,1,1.065.725,11.7,11.7,0,0,0-.435,12.086,10.356,10.356,0,0,0,9.714,5.59,11.272,11.272,0,0,0,9.329-5.036,14.236,14.236,0,0,0,1.408-12.618c-1.537-4.046-5.752-6.8-9.585-6.3a.644.644,0,0,1-.168-1.276c4.483-.6,9.189,2.465,10.958,7.121a15.558,15.558,0,0,1-1.542,13.793,12.535,12.535,0,0,1-10.365,5.608C225.954,206.9,225.834,206.907,225.714,206.907Z" transform="translate(1124.425 1507.539)" fill="#818fb3"/>
    <path id="Path_14412" data-name="Path 14412" d="M253.922,228.262s-51.88,12.792-70,33.4S157.27,383.9,156.915,402.734s12.792,26.65,20.61,31.981,42.284,14.925,70,16.345,54.013,0,54.013,0-.089-6.04,4.175-14.923c3.954-8.241,8.972-9.949,8.972-9.949l-23.808-8.529s-4.17-74.7-10.66-110.867C272.756,265.217,253.922,228.262,253.922,228.262Z" transform="translate(1083.77 1541.947)" fill="#223a7a"/>
    <path id="Path_14413" data-name="Path 14413" d="M269.611,403.93a.83.83,0,0,1-.347-.074.857.857,0,0,1-.438-1.132c4.86-10.966,9.9-32.5,12.733-47.6l.234-1.219c.859-4.443,1.927-9.97-.2-13.785-1.087-1.946-3.541-6.167-5.9-10.226-2.451-4.213-4.766-8.192-5.408-9.381-1.25-2.32,2.69-8.517,8.393-17.017,1.539-2.3,2.872-4.28,3.648-5.623,2.032-3.517.678-6.739-.888-10.471l-.532-1.285c-1.42-3.487-3.036-6.982-4.6-10.358-.637-1.381-1.276-2.763-1.9-4.153q-1.252-2.754-2.52-5.594c-5.022-11.193-10.216-22.769-16.864-33.95a.859.859,0,0,1,1.477-.878c6.7,11.265,11.911,22.885,16.953,34.125q1.27,2.831,2.516,5.589.943,2.076,1.9,4.141c1.57,3.394,3.193,6.906,4.627,10.43l.527,1.267c1.6,3.8,3.251,7.739.79,11.995-.806,1.393-2.15,3.4-3.708,5.721-2.975,4.433-9.163,13.659-8.307,15.243.629,1.164,2.937,5.134,5.381,9.335,2.367,4.069,4.828,8.3,5.918,10.252,2.439,4.362,1.3,10.231.393,14.947l-.234,1.211c-1.034,5.5-6.506,33.668-12.852,47.983A.856.856,0,0,1,269.611,403.93Z" transform="translate(1154.073 1543.742)" fill="#8593b6"/>
    <path id="Path_14414" data-name="Path 14414" d="M252.321,408.139a.854.854,0,0,1-.608-.252c-4.04-4.069-23.511-37.786-24.96-44.127-.794-3.471,1.2-12.275,3.126-20.79,1.493-6.6,3.037-13.419,2.6-15.265-.656-2.76-5.635-6.827-10.451-10.762-5.817-4.751-11.832-9.664-13-14.092-1.324-5.031-.192-36.524.556-57.362.27-7.493.481-13.412.481-15.523a.859.859,0,0,1,.857-.859h0a.859.859,0,0,1,.859.857c0,2.143-.213,8.076-.483,15.586-.7,19.478-1.87,52.078-.611,56.866,1.022,3.883,7.079,8.831,12.423,13.2,5.269,4.3,10.245,8.369,11.035,11.7.531,2.233-.917,8.63-2.593,16.038-1.8,7.942-3.832,16.938-3.126,20.031,1.422,6.216,20.538,39.3,24.5,43.3a.858.858,0,0,1-.61,1.463Z" transform="translate(1120.727 1542.554)" fill="#8593b6"/>
    <path id="Path_14415" data-name="Path 14415" d="M193.685,367.385a.992.992,0,0,1-.122-.009.861.861,0,0,1-.73-.97c.63-4.467,10.489-93.431,10.94-100.246a.85.85,0,0,1,.914-.8.86.86,0,0,1,.8.914c-.453,6.825-10.322,95.9-10.954,100.375A.857.857,0,0,1,193.685,367.385Z" transform="translate(1109.54 1568.562)" fill="#8593b6"/>
    <path id="Path_14416" data-name="Path 14416" d="M271.968,352.613a.852.852,0,0,1-.323-.064c-2.185-.885-11.835-4.141-24.053-8.259-24.66-8.318-58.434-19.706-64.856-23.043a.858.858,0,1,1,.792-1.523c6.3,3.275,41.393,15.109,64.613,22.939,12.244,4.131,21.917,7.39,24.15,8.3a.86.86,0,0,1-.323,1.656Z" transform="translate(1101.97 1607.497)" fill="#8593b6"/>
    <path id="Path_14417" data-name="Path 14417" d="M267.828,366.512c-21.7,0-63.777-3.914-95.739-15.219a.859.859,0,0,1,.572-1.62c40.376,14.283,96.863,16.721,107.372,14.362a.86.86,0,0,1,.376,1.678A68.547,68.547,0,0,1,267.828,366.512Z" transform="translate(1094.25 1629.023)" fill="#8593b6"/>
    <path id="Path_14418" data-name="Path 14418" d="M87.1,261.24c6.739,5.925,15.272,9.724,21.183,16.577,2.327,2.7,4.417,5.566,6.576,8.393,1.572,2.058,5.767,5.47,6.449,8.057.3,1.139.237-.4-.065-1.546-.012-.05-.038-.094-.052-.143-.589-5.237-1.012-10.494-1.2-15.761s.144-10.53-.185-15.773c-.464-7.4-2.774-14.566-8.823-19.2-2.956-2.265-6.757-3.645-9.474-6.159-2.58-2.387-1.546-5.122-.029-7.784,1.42-2.492,3.141-4.941,3.694-7.808.629-3.26-.6-6.623-2.252-9.4-3.517-5.906-11.322-12.495-18.712-11.612-6.164.739-6.863,7.847-6.775,12.8.086,4.816.563,9.616.61,14.435.046,4.95-.8,9.807-.866,14.734C77.069,249.432,80.942,255.821,87.1,261.24Z" transform="translate(1026.569 1520.953)" fill="#6baeff"/>
    <path id="Path_14419" data-name="Path 14419" d="M158.048,323.279a79.091,79.091,0,0,1,6.674-12.725c3.631-5.584,7.657-11.023,10.1-17.273,2.49-6.382,2.125-13.207,2.37-19.928.179-4.941,1.647-9.865,1.25-14.817-.189-2.375-1.558-6.217-4.63-5.824-2.391.306-3.811,3.27-4.73,5.161a90.891,90.891,0,0,0-3.907,10.284c-.464,1.355-.909,2.734-1.5,4.041-.342.761-1.429,2.617-2.456,2.363-1.745-.433-.16-7.56.1-8.823,1.305-6.339,3.267-12.234,3.54-18.758.4-9.46-.34-20.721-9.594-25.895-2.418-1.352-5.482-2.157-7.78-.136-2.267,2-2.908,5.453-3.244,8.3-1.034,8.737,1.024,17.01,3.823,25.23,2.312,6.787,5.067,13.791,5.268,21.05.192,6.987-3.442,13.178-5.147,19.777a62.562,62.562,0,0,0-2.171,19.5c-.017,4.268.137,8.488.45,12.744.287,3.912.627,7.823,1.1,11.717.1.787.187,1.609.292,2.432-1.5-3.619-2.028-7.763-3.272-11.4-2.212-6.463-4.781-12.793-6.9-19.289a159.6,159.6,0,0,0-5.724-15.93c-2.173-4.84-4.8-9.958-8.847-13.51a12.908,12.908,0,0,0-8.692-3.378,24.032,24.032,0,0,0-5.979,1.271,6.726,6.726,0,0,1-6.423-1.13c-6.631-5.1-8.648-14.236-13.558-20.691-3.662-4.814-12.349-13.02-18.738-7.77-3.387,2.784-4.321,8.167-4.144,12.29.223,5.175,2.485,9.91,5.178,14.236,2.865,4.6,6.563,8.721,9.2,13.451A14.278,14.278,0,0,1,81.5,298.48c-.232,2.97-.491,5.845.52,8.709,3.04,8.6,12.532,7.406,19.914,7.629a55.259,55.259,0,0,1,15.614,2.578,17.359,17.359,0,0,1,11.382,11.2c1.465,4.057,2.25,8.665,5.012,12.11a12.88,12.88,0,0,0,4.909,3.655c2.878,1.273,11.657,1.826,11.72,1.025.218-2.684,1.491-5.517,2.288-8.064C154.355,332.552,156.112,327.894,158.048,323.279Z" transform="translate(1018.227 1535.826)" fill="#6baeff"/>
    <path id="Path_14420" data-name="Path 14420" d="M163.656,285.418c-.764-4.919-.617-10.339-2.945-14.856a.674.674,0,0,0-.909-.239c-1.669.926-1.738,3.622-1.875,5.274-.225,2.741-.057,5.489-.4,8.222A61.464,61.464,0,0,1,154.1,298.1c-1.956,5.121-5.517,8.024-10.686,9.623-3.322,1.027-6.58,1.92-9.352,4.125a19.665,19.665,0,0,0-5.486,7.564c-3.452,7.739-5.1,16.392-6.7,24.661-1.077,5.568-1.956,11.162-3.308,16.673a163.622,163.622,0,0,0-3.578,16.618c-.131.283-.27.565-.39.852-.354.842.962,1.295,1.417.6,5.336-8.213,11.837-15.588,20.706-20.112,4.005-2.042,9.326-2.466,12.666-5.676,2.542-2.442,2.891-6.169,2.511-9.491-.5-4.364-2.59-7.955-4.769-11.675-1.2-2.042-2.609-4.232-2.126-6.714.455-2.343,2.4-4.064,4.335-5.264,3.687-2.289,8-3.318,11.018-6.617a18.091,18.091,0,0,0,4.67-11.007C165.446,296.752,164.5,290.852,163.656,285.418Z" transform="translate(1053.375 1572.065)" fill="#6baeff"/>
    <path id="Path_14421" data-name="Path 14421" d="M113.316,303.577a70.773,70.773,0,0,0-16.788-15.543c-3.411-2.267-11.461-6.738-13.086-.053-.951,3.919,2.882,7.772,5.4,10.228,3.792,3.691,8.179,6.875,11.378,11.128-3.962,1.266-8.1,1.511-11.543,4.251-4.076,3.243-5.9,9.5-1.863,13.477,1.97,1.936,4.581,3.124,7.033,4.311,3.188,1.544,6.434,2.944,9.7,4.307,7.055,2.947,14.2,5.937,20.215,10.765,6.133,4.919,11.9,13.237,12.383,21.262.048.766-.244.069.215-.282.249.225,1.089-.177,1.085-.625a84.655,84.655,0,0,0-7.133-34.159A142.676,142.676,0,0,0,113.316,303.577Z" transform="translate(1030.952 1582.267)" fill="#6baeff"/>
    <path id="Path_14422" data-name="Path 14422" d="M91.329,231.368c2.6,5.389,5.314,10.657,8.2,15.916a127.656,127.656,0,0,1,7.626,15.485c2.557,6.648,5.238,13.2,7.942,19.787a195.2,195.2,0,0,1,7.335,20.955,248.375,248.375,0,0,1,8.3,42.611,173.078,173.078,0,0,1,.867,22.025c-.158,5.745-.806,11.428-1.345,17.142a101.348,101.348,0,0,0-.469,17.927c.416,4.988,1.209,10.916,5.079,14.475a.89.89,0,0,0,1.391-1.073c-4.6-9.432-4.342-19.713-3.462-29.943.486-5.647,1.159-11.263,1.35-16.933a169.486,169.486,0,0,0-.72-21.618,255.755,255.755,0,0,0-7.8-41.761,188.7,188.7,0,0,0-6.86-20.663c-2.676-6.774-5.767-13.36-8.361-20.167-4.689-12.309-11.837-23.224-18.166-34.695-.33-.6-1.194-.072-.9.529Z" transform="translate(1036.676 1543.608)" fill="#43588e"/>
    <path id="Path_14423" data-name="Path 14423" d="M114.685,310.39c.744-8.964,1.539-17.6,4.56-26.147,1.41-3.988,3.117-7.866,4.477-11.87,1.123-3.308,2.8-7.847,1.939-11.365a.406.406,0,0,0-.776,0c-.579,2.009-.515,4.213-.931,6.272a55.484,55.484,0,0,1-1.571,5.924c-1.326,4.143-3.059,8.112-4.56,12.189a60.321,60.321,0,0,0-3.754,25,.308.308,0,0,0,.617,0Z" transform="translate(1052.93 1565.237)" fill="#43588e"/>
    <path id="Path_14424" data-name="Path 14424" d="M84.138,259.894c3.559,8.6,14.255,9.092,22.046,11.016,5.563,1.376,9.669,5.087,12.618,9.9,3.229,5.271,5.412,11.459,7.207,17.343a.054.054,0,0,0,.1-.029c-2.178-10.3-5.3-22.709-15.921-27.5-8.51-3.842-19.725-1.913-25.17-11.1-.268-.453-1.1-.149-.883.371Z" transform="translate(1031.532 1564.218)" fill="#43588e"/>
    <path id="Path_14425" data-name="Path 14425" d="M111.1,288.923c.424.572.811,1.168,1.249,1.73a4.661,4.661,0,0,0,.709.763,1.646,1.646,0,0,0,.989.5.216.216,0,0,0,.185-.323,3.413,3.413,0,0,0-.742-.678c-.254-.225-.514-.445-.761-.678-.5-.471-.953-.982-1.439-1.463-.094-.093-.275.033-.191.146Z" transform="translate(1050.889 1585.343)" fill="#43588e"/>
    <path id="Path_14426" data-name="Path 14426" d="M98.2,305.055a86.633,86.633,0,0,1,16.3,17.53,105.981,105.981,0,0,1,5.936,9.764,108.935,108.935,0,0,1,4.8,11.315c.117.292.646.3.606-.081-.852-8.084-5.973-15.014-10.073-21.738a51.892,51.892,0,0,0-7.626-9.225,67.816,67.816,0,0,0-9.386-8.282c-.419-.3-.953.386-.551.716Z" transform="translate(1041.543 1596.48)" fill="#43588e"/>
    <path id="Path_14427" data-name="Path 14427" d="M134.243,299.212c-2.956,1.675-3.052,6.344-3.11,9.326-.11,5.728,1.307,11.107-1.207,16.565-2.271,4.931-5.9,9.048-8.751,13.627-2.669,4.285-5.3,9.764-5.243,14.923,0,.3.46.465.6.161,1.075-2.341,1.462-5,2.231-7.456a31.3,31.3,0,0,1,3.643-7.693c2.743-4.252,6.113-8.124,8.34-12.7,2.344-4.821,2-9.6,1.846-14.818-.1-3.33-.433-8.682,2.255-11.158.421-.388-.118-1.055-.6-.78Z" transform="translate(1054.369 1592.807)" fill="#43588e"/>
    <path id="Path_14428" data-name="Path 14428" d="M129.533,331.316c-11.906-.165-34.587-.3-34.587-.3l5.613,41.668a18.893,18.893,0,0,0,18.722,16.371h20.5a18.893,18.893,0,0,0,18.724-16.371l5.613-41.668S141.44,331.152,129.533,331.316Z" transform="translate(1039.313 1615.675)" fill="#fff"/>
    <path id="Path_14429" data-name="Path 14429" d="M561.3,287.4l-67.93,134.556-198.044,1.421L356.444,285.5Z" transform="translate(1183.083 1583.017)" fill="#f6f7fa"/>
    <path id="Path_14430" data-name="Path 14430" d="M218.8,423.826l.038-10.77h128.2L406.022,283.71H611.054l5.154,4.976H415.913l-61.3,135.03S218.8,423.47,218.8,423.826Z" transform="translate(1128.174 1581.73)" fill="#d9dee8"/>
    <path id="Path_14431" data-name="Path 14431" d="M409.736,335.162c-2.238,6.712-14.38,11.9-27.122,11.576s-21.257-6.018-19.021-12.728,14.381-11.9,27.122-11.576S411.974,328.452,409.736,335.162Z" transform="translate(1231.807 1609.504)" fill="#d9dee8"/>
    <path id="Path_14432" data-name="Path 14432" d="M298.236,422.855a.879.879,0,0,1-.355-.077.859.859,0,0,1-.426-1.137L358.98,286.107H559.827a.859.859,0,0,1,0,1.718H360.086L299.019,422.352A.859.859,0,0,1,298.236,422.855Z" transform="translate(1184.555 1583.45)" fill="#fff"/>
    <rect id="Rectangle_955" data-name="Rectangle 955" width="235.591" height="52.235" transform="translate(1102.456 2015.751)" fill="#596b9b"/>
    <rect id="Rectangle_956" data-name="Rectangle 956" width="423.874" height="52.235" transform="translate(1336.701 2015.751)" fill="#7a89af"/>
    <path id="Path_14433" data-name="Path 14433" d="M312.02,371.228H76.429v9.594H734.547v-9.594Z" transform="translate(1026.027 1644.523)" fill="#bdc4d7" style="mix-blend-mode: multiply;isolation: isolate"/>
    <rect id="Rectangle_957" data-name="Rectangle 957" width="257.267" height="12.792" transform="translate(1091.085 2005.446)" fill="#6f7fa9"/>
    <rect id="Rectangle_958" data-name="Rectangle 958" width="423.874" height="12.792" transform="translate(1347.006 2005.446)" fill="#9ca6c3"/>
    <rect id="Rectangle_959" data-name="Rectangle 959" width="101.805" height="60.158" rx="5.426" transform="translate(1186.081 1671.228)" fill="#fff"/>
    <path id="Path_14434" data-name="Path 14434" d="M211.244,193.65l-31.236-13.18v26.36Z" transform="translate(1100.344 1507.657)" fill="#fff"/>
    <circle id="Ellipse_340" data-name="Ellipse 340" cx="5.754" cy="5.754" r="5.754" transform="translate(1211.5 1695.553)" fill="#223a7a"/>
    <circle id="Ellipse_341" data-name="Ellipse 341" cx="5.754" cy="5.754" r="5.754" transform="translate(1231.23 1695.553)" fill="#223a7a"/>
    <circle id="Ellipse_342" data-name="Ellipse 342" cx="5.754" cy="5.754" r="5.754" transform="translate(1250.961 1695.553)" fill="#223a7a"/>
    <path id="Path_14435" data-name="Path 14435" d="M515.035,96.262h-192A22.327,22.327,0,0,0,300.7,118.589v91.087A22.328,22.328,0,0,0,323.032,232h17.209c.483,8.256-.7,20.539-7.593,36.244A96.477,96.477,0,0,0,374.275,232h140.76a22.328,22.328,0,0,0,22.327-22.327V118.589A22.327,22.327,0,0,0,515.035,96.262Z" transform="translate(1186.941 1447.239)" fill="#60a8ff"/>
    <path id="Path_14436" data-name="Path 14436" d="M419.571,125.5H324.339a4.738,4.738,0,0,1-4.738-4.739h0a4.738,4.738,0,0,1,4.738-4.737h95.231a4.738,4.738,0,0,1,4.738,4.737h0A4.738,4.738,0,0,1,419.571,125.5Z" transform="translate(1200.499 1461.416)" fill="#fff"/>
    <path id="Path_14437" data-name="Path 14437" d="M487.856,140.031H322.5a2.9,2.9,0,0,1-2.9-2.9h0a2.9,2.9,0,0,1,2.9-2.9H487.856a2.9,2.9,0,0,1,2.9,2.9h0A2.9,2.9,0,0,1,487.856,140.031Z" transform="translate(1200.499 1474.479)" fill="#d2e6ff"/>
    <path id="Path_14438" data-name="Path 14438" d="M487.856,149.41H322.5a2.9,2.9,0,0,1-2.9-2.9h0a2.9,2.9,0,0,1,2.9-2.9H487.856a2.9,2.9,0,0,1,2.9,2.9h0A2.9,2.9,0,0,1,487.856,149.41Z" transform="translate(1200.499 1481.209)" fill="#d2e6ff"/>
    <path id="Path_14439" data-name="Path 14439" d="M451.785,159.41H322.5a2.9,2.9,0,0,1-2.9-2.9h0a2.9,2.9,0,0,1,2.9-2.9H451.785a2.9,2.9,0,0,1,2.9,2.9h0A2.9,2.9,0,0,1,451.785,159.41Z" transform="translate(1200.499 1488.384)" fill="#d2e6ff"/>
    <path id="Path_14440" data-name="Path 14440" d="M437.769,125.5H392.339a4.738,4.738,0,0,1-4.738-4.739h0a4.738,4.738,0,0,1,4.738-4.737h45.429a4.737,4.737,0,0,1,4.737,4.737h0A4.738,4.738,0,0,1,437.769,125.5Z" transform="translate(1249.288 1461.416)" fill="#fff"/>
    <rect id="Rectangle_960" data-name="Rectangle 960" width="58.454" height="42.108" rx="2" transform="translate(1517.54 1754.279)" fill="#fff"/>
    <path id="Path_14441" data-name="Path 14441" d="M347.6,245.931a1.285,1.285,0,0,1-.819-.3l-28.074-23.188a1.288,1.288,0,0,1,1.64-1.985l27.232,22.49,26.537-23.09a1.287,1.287,0,1,1,1.69,1.942l-27.359,23.81A1.293,1.293,0,0,1,347.6,245.931Z" transform="translate(1199.522 1535.694)" fill="#6f7fa9"/>
    <path id="Path_14442" data-name="Path 14442" d="M319.527,252.644a1.288,1.288,0,0,1-.933-2.176l19.633-20.641a1.288,1.288,0,1,1,1.865,1.776L320.46,252.243A1.282,1.282,0,0,1,319.527,252.644Z" transform="translate(1199.522 1542.782)" fill="#6f7fa9"/>
    <path id="Path_14443" data-name="Path 14443" d="M359.972,251.772a1.282,1.282,0,0,1-.912-.378L339.5,231.785a1.289,1.289,0,0,1,1.826-1.819l19.553,19.609a1.287,1.287,0,0,1-.912,2.2Z" transform="translate(1214.511 1542.898)" fill="#6f7fa9"/>
    <circle id="Ellipse_343" data-name="Ellipse 343" cx="17.234" cy="17.234" r="17.234" transform="translate(1561.439 1735.741)" fill="#ff5f42"/>
    <text id="_85" data-name="85" transform="translate(1566.561 1759.356)" fill="#fff" font-size="19" font-family="QuicksandBold-Regular, Quicksand"><tspan x="0" y="0">85</tspan></text>
    <rect id="Rectangle_961" data-name="Rectangle 961" width="114.42" height="29.493" rx="4" transform="translate(1644.216 1717.139)" fill="#223a7a"/>
    <path id="Path_14444" data-name="Path 14444" d="M403,216.913a1.351,1.351,0,0,1-1.087-.483,1.609,1.609,0,0,1-.364-1.207l.436-3.82c.031-.1.015-.16-.048-.194a.243.243,0,0,0-.242.05l-3.143,2.271a1.476,1.476,0,0,1-1.207.314,1.5,1.5,0,0,1-1.015-.749,1.457,1.457,0,0,1-.17-1.353,1.553,1.553,0,0,1,.895-.821l3.528-1.6c.1-.031.146-.081.146-.144s-.048-.113-.146-.146l-3.528-1.6a1.438,1.438,0,0,1-.871-.917,1.592,1.592,0,0,1,.146-1.257,1.516,1.516,0,0,1,1.015-.751,1.582,1.582,0,0,1,1.207.266l3.143,2.32a.243.243,0,0,0,.242.05c.063-.033.079-.1.048-.194l-.436-3.818a1.565,1.565,0,0,1,.388-1.209,1.486,1.486,0,0,1,1.159-.484,1.438,1.438,0,0,1,1.45,1.693l-.435,3.818c-.033.1-.017.161.048.194a.244.244,0,0,0,.242-.05l3.141-2.271a1.53,1.53,0,0,1,1.233-.316,1.381,1.381,0,0,1,.991.751,1.461,1.461,0,0,1,.168,1.353,1.548,1.548,0,0,1-.895.821l-3.526,1.6c-.1.033-.146.081-.146.146s.048.113.146.144l3.526,1.6a1.52,1.52,0,0,1,.895.917,1.419,1.419,0,0,1-.168,1.257,1.37,1.37,0,0,1-.991.749,1.612,1.612,0,0,1-1.233-.265l-3.141-2.32a.244.244,0,0,0-.242-.05c-.065.034-.081.1-.048.194l.435,3.82a1.388,1.388,0,0,1-.362,1.207A1.559,1.559,0,0,1,403,216.913Z" transform="translate(1255.355 1522.707)" fill="#fff"/>
    <path id="Path_14445" data-name="Path 14445" d="M415.122,216.913a1.354,1.354,0,0,1-1.087-.483,1.615,1.615,0,0,1-.362-1.207l.434-3.82c.033-.1.017-.16-.048-.194a.244.244,0,0,0-.242.05l-3.141,2.271a1.478,1.478,0,0,1-1.209.314,1.506,1.506,0,0,1-1.015-.749,1.456,1.456,0,0,1-.168-1.353,1.55,1.55,0,0,1,.893-.821l3.529-1.6c.1-.031.146-.081.146-.144s-.05-.113-.146-.146l-3.529-1.6a1.435,1.435,0,0,1-.869-.917,1.591,1.591,0,0,1,.144-1.257,1.519,1.519,0,0,1,1.015-.751,1.584,1.584,0,0,1,1.209.266l3.141,2.32a.244.244,0,0,0,.242.05c.065-.033.081-.1.048-.194l-.434-3.818a1.571,1.571,0,0,1,.386-1.209,1.49,1.49,0,0,1,1.161-.484,1.436,1.436,0,0,1,1.448,1.693l-.433,3.818c-.033.1-.017.161.048.194a.244.244,0,0,0,.242-.05l3.141-2.271a1.528,1.528,0,0,1,1.233-.316,1.381,1.381,0,0,1,.991.751,1.455,1.455,0,0,1,.167,1.353,1.54,1.54,0,0,1-.893.821l-3.528,1.6c-.1.033-.144.081-.144.146s.048.113.144.144l3.528,1.6a1.513,1.513,0,0,1,.893.917,1.413,1.413,0,0,1-.167,1.257,1.37,1.37,0,0,1-.991.749,1.61,1.61,0,0,1-1.233-.265l-3.141-2.32a.244.244,0,0,0-.242-.05c-.065.034-.081.1-.048.194l.433,3.82a1.387,1.387,0,0,1-.361,1.207A1.563,1.563,0,0,1,415.122,216.913Z" transform="translate(1264.055 1522.707)" fill="#fff"/>
    <path id="Path_14446" data-name="Path 14446" d="M427.247,216.913a1.351,1.351,0,0,1-1.087-.483,1.617,1.617,0,0,1-.364-1.207l.436-3.82c.031-.1.015-.16-.048-.194a.244.244,0,0,0-.242.05l-3.141,2.271a1.479,1.479,0,0,1-1.209.314,1.5,1.5,0,0,1-1.015-.749,1.462,1.462,0,0,1-.17-1.353,1.553,1.553,0,0,1,.895-.821l3.529-1.6c.1-.031.144-.081.144-.144s-.048-.113-.144-.146l-3.529-1.6a1.431,1.431,0,0,1-.869-.917,1.584,1.584,0,0,1,.144-1.257,1.516,1.516,0,0,1,1.015-.751,1.586,1.586,0,0,1,1.209.266l3.141,2.32a.244.244,0,0,0,.242.05c.064-.033.079-.1.048-.194l-.436-3.818a1.572,1.572,0,0,1,.388-1.209,1.488,1.488,0,0,1,1.159-.484,1.436,1.436,0,0,1,1.45,1.693l-.435,3.818c-.033.1-.017.161.05.194a.245.245,0,0,0,.242-.05l3.141-2.271a1.527,1.527,0,0,1,1.233-.316,1.379,1.379,0,0,1,.989.751,1.451,1.451,0,0,1,.168,1.353,1.55,1.55,0,0,1-.893.821l-3.528,1.6c-.1.033-.146.081-.146.146s.048.113.146.144l3.528,1.6a1.517,1.517,0,0,1,.893.917,1.414,1.414,0,0,1-.168,1.257,1.368,1.368,0,0,1-.989.749,1.609,1.609,0,0,1-1.233-.265l-3.141-2.32a.245.245,0,0,0-.242-.05c-.067.034-.082.1-.05.194l.435,3.82a1.392,1.392,0,0,1-.361,1.207A1.565,1.565,0,0,1,427.247,216.913Z" transform="translate(1272.755 1522.707)" fill="#fff"/>
    <path id="Path_14447" data-name="Path 14447" d="M439.373,216.913a1.357,1.357,0,0,1-1.089-.483,1.616,1.616,0,0,1-.362-1.207l.436-3.82c.031-.1.015-.16-.048-.194a.243.243,0,0,0-.242.05l-3.143,2.271a1.476,1.476,0,0,1-1.207.314,1.5,1.5,0,0,1-1.015-.749,1.457,1.457,0,0,1-.17-1.353,1.553,1.553,0,0,1,.895-.821l3.528-1.6c.1-.031.146-.081.146-.144s-.048-.113-.146-.146l-3.528-1.6a1.438,1.438,0,0,1-.871-.917,1.591,1.591,0,0,1,.146-1.257,1.516,1.516,0,0,1,1.015-.751,1.581,1.581,0,0,1,1.207.266l3.143,2.32a.243.243,0,0,0,.242.05c.064-.033.079-.1.048-.194l-.436-3.818a1.565,1.565,0,0,1,.388-1.209,1.486,1.486,0,0,1,1.159-.484,1.438,1.438,0,0,1,1.45,1.693l-.435,3.818c-.033.1-.017.161.048.194a.243.243,0,0,0,.242-.05l3.141-2.271a1.53,1.53,0,0,1,1.233-.316,1.381,1.381,0,0,1,.991.751,1.461,1.461,0,0,1,.168,1.353,1.548,1.548,0,0,1-.895.821l-3.526,1.6c-.1.033-.146.081-.146.146s.048.113.146.144l3.526,1.6a1.521,1.521,0,0,1,.895.917,1.419,1.419,0,0,1-.168,1.257,1.37,1.37,0,0,1-.991.749,1.611,1.611,0,0,1-1.233-.265l-3.141-2.32a.243.243,0,0,0-.242-.05c-.065.034-.081.1-.048.194l.435,3.82a1.388,1.388,0,0,1-.362,1.207A1.558,1.558,0,0,1,439.373,216.913Z" transform="translate(1281.453 1522.707)" fill="#fff"/>
    <path id="Path_14448" data-name="Path 14448" d="M451.5,216.913a1.354,1.354,0,0,1-1.087-.483,1.616,1.616,0,0,1-.362-1.207l.435-3.82c.033-.1.015-.16-.048-.194a.244.244,0,0,0-.242.05l-3.141,2.271a1.478,1.478,0,0,1-1.209.314,1.506,1.506,0,0,1-1.015-.749,1.456,1.456,0,0,1-.168-1.353,1.55,1.55,0,0,1,.893-.821l3.529-1.6c.1-.031.146-.081.146-.144s-.05-.113-.146-.146l-3.529-1.6a1.431,1.431,0,0,1-.869-.917,1.59,1.59,0,0,1,.144-1.257,1.519,1.519,0,0,1,1.015-.751,1.584,1.584,0,0,1,1.209.266l3.141,2.32a.244.244,0,0,0,.242.05c.064-.033.081-.1.048-.194l-.435-3.818a1.571,1.571,0,0,1,.386-1.209,1.49,1.49,0,0,1,1.161-.484,1.436,1.436,0,0,1,1.448,1.693l-.433,3.818c-.033.1-.017.161.048.194a.244.244,0,0,0,.242-.05l3.141-2.271a1.528,1.528,0,0,1,1.233-.316,1.381,1.381,0,0,1,.991.751,1.455,1.455,0,0,1,.167,1.353,1.539,1.539,0,0,1-.893.821l-3.528,1.6c-.1.033-.144.081-.144.146s.048.113.144.144l3.528,1.6a1.513,1.513,0,0,1,.893.917,1.413,1.413,0,0,1-.167,1.257,1.371,1.371,0,0,1-.991.749,1.61,1.61,0,0,1-1.233-.265l-3.141-2.32a.244.244,0,0,0-.242-.05c-.065.034-.081.1-.048.194l.433,3.82a1.387,1.387,0,0,1-.361,1.207A1.563,1.563,0,0,1,451.5,216.913Z" transform="translate(1290.152 1522.707)" fill="#67acff"/>
  </g>
</svg>
