<svg id="Group_2839" data-name="Group 2839" xmlns="http://www.w3.org/2000/svg" xmlns:xlink="http://www.w3.org/1999/xlink" width="238.198" height="53.925" viewBox="0 0 238.198 53.925">
  <defs>
    <clipPath id="clip-path">
      <path id="Path_13412" data-name="Path 13412" d="M840.639,636.9v38.284l5.53.044V636.9Zm54,0h-12.8v4.956h7.271v33.328l5.527.044V641.861H901.9V636.9ZM847.18,655.244A19.8,19.8,0,0,0,867.1,676.009a17.83,17.83,0,0,0,16.722-10.573h-6.854l-1.887,2.139s-3.875,3.43-8.716,2.829-12.634-2.783-13.372-14.879c.919-10.892,9.038-14.465,14.25-14.043,4.659.371,7.676,1.644,9.938,5.073h6.642s-3.462-10.636-17.157-10.636c-10.835,0-18.929,8.39-19.486,19.327m-87.366-24.4h8.156s11.109-.074,11.109,9.351-8.158,9.876-9.874,10.435l-9.391.151Zm-7.493-6.93v51.678l7.533-.012V651.793l17.206,23.862h9.274l-14.587-19.823a13.48,13.48,0,0,0,4.526-.784,14.258,14.258,0,0,0,4.352-2.206c-.3-7.384-.019-6.634.544-10.127s4.256-8.825,4.256-8.825c-3.431-9.724-15.461-9.973-15.461-9.973Zm-32.106-.064-20.26,51.869h7.981L723.774,633.7l15.707,42.017H740.6V657.331l-12.9-33.48Zm22.632,0v51.8l7.48.066V623.852Zm47.341,26.122c0-10.732,8.371-19.431,18.705-19.431s18.708,8.7,18.708,19.431-8.375,19.432-18.708,19.432-18.705-8.7-18.705-19.432m-7.9,0a26.6,26.6,0,1,0,26.6-26.857,26.728,26.728,0,0,0-26.6,26.857M663.74,648.911a26.682,26.682,0,0,0,26.929,27.929,36.168,36.168,0,0,0,6.732-.87l4.054-10.473s-5.237,4.613-11.786,3.8-17.082-3.739-18.076-20.008c1.244-14.651,12.217-19.45,19.264-18.89,6.294.5,10.379,2.213,13.434,6.829h8.977s-4.674-14.312-23.191-14.312c-14.652,0-25.591,11.286-26.336,26" transform="translate(-663.706 -622.915)" fill="#5a5b5d"/>
    </clipPath>
  </defs>
  <g id="Group_2838" data-name="Group 2838" clip-path="url(#clip-path)">
    <rect id="Rectangle_663" data-name="Rectangle 663" width="238.914" height="53.966" transform="translate(-0.716 0)" fill="#5a5b5d"/>
  </g>
</svg>
