<svg id="Layer_1" data-name="Layer 1" xmlns="http://www.w3.org/2000/svg" viewBox="0 0 251 71"><defs><style>.cls-1{fill:none;}.cls-2{fill:#5c2d91;}.cls-3{fill:#fff;}</style></defs><rect class="cls-1" width="251" height="71"/><circle class="cls-2" cx="38.5" cy="35.5" r="35.5"/><path class="cls-3" d="M36.6,27.4H35a.9.9,0,0,0-.9.8V38.7h0a1.6,1.6,0,0,1-1.6,1.6H29.3a1.6,1.6,0,0,1-1.6-1.6V28.2a.9.9,0,0,0-.8-.8H25.3a.8.8,0,0,0-.8.8V38.7a1.6,1.6,0,0,1-1.6,1.6H19.6A1.6,1.6,0,0,1,18,38.7V28.2a.8.8,0,0,0-.8-.8H15.6a.8.8,0,0,0-.8.8V38.7A4.9,4.9,0,0,0,18,43.3a4.5,4.5,0,0,0,1.6.3h3.3a4.5,4.5,0,0,0,1.6-.3,5.4,5.4,0,0,0,1.6-1,4.4,4.4,0,0,0,1.6,1,4.1,4.1,0,0,0,1.6.3h3.2a4.1,4.1,0,0,0,1.6-.3,5,5,0,0,0,3.3-4.6V28.2A.9.9,0,0,0,36.6,27.4Zm25.1,3.5a6.4,6.4,0,0,0-2.1-2.5,5.7,5.7,0,0,0-3.1-1H45.2a6.1,6.1,0,0,0-4.7,2.5,5.8,5.8,0,0,0-1,3.2v4.8A6.1,6.1,0,0,0,42,42.6a5.8,5.8,0,0,0,3.2,1H56.5a5.8,5.8,0,0,0,5.1-3.3c0-.1.1-.2.1-.3s-.1-.7-.5-.7H58.7a.4.4,0,0,0-.4.2,2.3,2.3,0,0,1-1.8.8H44.2a2.2,2.2,0,0,1-1-.9,2.3,2.3,0,0,1-.4-1.4v-.8H61.3a.7.7,0,0,0,.8-.8V33.1A5.4,5.4,0,0,0,61.7,30.9Zm-2.8,3H42.8v-.8a3.1,3.1,0,0,1,.1-1,2.2,2.2,0,0,1,.9-1,2.3,2.3,0,0,1,1.4-.4H57.4a3.1,3.1,0,0,1,1.1.9,3.3,3.3,0,0,1,.4,1.4Z"/><path class="cls-2" d="M191.1,30.6a1.8,1.8,0,0,0,1.8-1.9,1.8,1.8,0,0,0-3.6,0A1.8,1.8,0,0,0,191.1,30.6Zm-73.2-.5a1.4,1.4,0,0,0,1.3-1.5,1.4,1.4,0,0,0-1.4-1.5,1.3,1.3,0,0,0-1.3,1.5A1.4,1.4,0,0,0,117.9,30.1ZM123,36c0,3.5-1.5,5-3.6,5s-3.8-1.5-3.8-5V31.2h-2v4.7c0,4.8,2.5,6.7,5.9,6.7s5.6-1.8,5.6-6.6V31.2H123Zm11.4,2.3a2.6,2.6,0,0,1-2.6,2.6h-.7V27.8h-2V40.9h-2.8v1.7h6.5s3.5-.6,3.5-4V27.8h-1.9Zm26.3-8.2a1.5,1.5,0,0,0,1.4-1.5,1.4,1.4,0,0,0-1.4-1.5,1.3,1.3,0,0,0-1.3,1.5A1.4,1.4,0,0,0,160.7,30.1Zm-39.8,0a1.4,1.4,0,0,0,1.3-1.5,1.3,1.3,0,0,0-1.3-1.5,1.4,1.4,0,0,0-1.4,1.5A1.5,1.5,0,0,0,120.9,30.1Zm66.3.5a1.8,1.8,0,0,0,1.8-1.9,1.7,1.7,0,0,0-1.7-1.8,1.7,1.7,0,0,0-1.8,1.8A1.7,1.7,0,0,0,187.2,30.6Zm9.9,17.1a1.8,1.8,0,0,0,1.8-1.8,1.8,1.8,0,0,0-1.8-1.9,1.7,1.7,0,0,0-1.8,1.9A1.7,1.7,0,0,0,197.1,47.7Zm-3.9,0a1.7,1.7,0,0,0,1.8-1.8,1.7,1.7,0,0,0-1.8-1.9,1.8,1.8,0,0,0-1.8,1.9A1.8,1.8,0,0,0,193.2,47.7Zm-31-10.3c0,2.1-.7,3.6-2.4,3.6a3.5,3.5,0,0,1-1.8-.6,6.1,6.1,0,0,0,.9-2.6V36.1s-.2-5-5-5.2a6.6,6.6,0,0,0-2.1.2,8.7,8.7,0,0,0-4.5,2.3V31.1h-1.9v9.8H144a2.5,2.5,0,0,1-2.7-2.6V27.8h-1.9V38.6c0,3.4,3.5,4,3.5,4h4.4V40.7s1.6,1.9,3.3,1.9h3.5a4.7,4.7,0,0,0,3.2-1.3,3.9,3.9,0,0,0,3.1,1.3c2.2,0,3.8-1.3,3.8-4.9V31.2h-2Zm-5.3-.2s0,3.3-3.1,3.8h-3.2a3.5,3.5,0,0,1-3.3-3.1V36.7s.2-2.1,3-3.3a10.8,10.8,0,0,1,3.8-.8s2.7.1,2.8,3.7Zm44.4.3V31h-3.4v6.6c0,2.2-1.1,1.9-1.1,1.9s-.8-1.9-.8-1.9V31h-3.4v1.8a4.2,4.2,0,0,0-3.7-1.8c-2.5,0-4.7,2.2-4.7,5.8s2.6,6.1,5.1,6.1a4.8,4.8,0,0,0,2.2-.6l.8-.6.9-1a3.3,3.3,0,0,0,3.3,1.9C201.6,42.8,201.3,37.5,201.3,37.5Zm-9,.2a1.9,1.9,0,0,1-.1.8,2.1,2.1,0,0,1-2,1.7c-1.5,0-2.4-1.3-2.4-3.3s.8-3.1,2.4-3.1a2.1,2.1,0,0,1,2,1.7,1.7,1.7,0,0,1,.1.7Zm52.2-9.9V42.9H248V27.8Zm-64,10.5a2.5,2.5,0,0,1-2.6,2.6c-2.2-.1-2.4-2.6-2.4-2.6V27.8h-2V38.3c-.2,2.8-2.4,2.6-2.4,2.6H170V27.8h-2V40.9h-2.5v1.7h6.4a3.2,3.2,0,0,0,3.1-2.4,3.9,3.9,0,0,0,3.5,2.4c3.7,0,3.9-3.9,3.9-3.9V27.8h-1.9ZM163.7,27.1a1.3,1.3,0,0,0-1.3,1.5,1.4,1.4,0,0,0,1.4,1.5,1.4,1.4,0,0,0,1.3-1.5A1.4,1.4,0,0,0,163.7,27.1Zm79,.7h-3.4V37.9c0,2.1-1.1,1.9-1.1,1.9s-.8-1.9-.8-1.9V37a5.5,5.5,0,0,0-5.8-5.9,5.6,5.6,0,0,0-6,5.9,2.2,2.2,0,0,0,.1.8v.4a1.7,1.7,0,0,1-.3,1.4l-.6.2h-.1c-.7,0-.8-1.1-.8-1.6V36.7a7.8,7.8,0,0,0-.4-2.2,5.3,5.3,0,0,0-.8-1.5,5.2,5.2,0,0,0-1-1.1l-1.2-.6-1-.2h-1.8l-1.4.2-1.2.4-1.8.8-.9.7c-.2.1-.3.3-.4.4s-.1.1-.1.2V31h-3.4v6.9c0,2.1-1,1.9-1,1.9s-.8-.9-.8-1.4V31h-3.4V42.1a3.1,3.1,0,0,1-3.4,2.7v2.7h.7s5,.4,5.9-4.6h.7a4.2,4.2,0,0,0,3.6-1.5,4.7,4.7,0,0,0,2.6,1.4h4.7a5.9,5.9,0,0,0,3.6-1.1,3.4,3.4,0,0,0,2.8,1.1,4.5,4.5,0,0,0,3.3-1.1,6.1,6.1,0,0,0,3.6,1.1,6.5,6.5,0,0,0,3.7-1.2,3.4,3.4,0,0,0,2.8,1.2c5.1.1,4.8-5.1,4.8-5.1Zm-22.3,9.4v.4l-.3.8a2.3,2.3,0,0,1-1.4,1.6l-.6.2h-3.8s-2.5.3-2-2.7a3.1,3.1,0,0,1,2.3-2.9l2.3-.6h.4a2.1,2.1,0,0,1,1.1-.1,2.3,2.3,0,0,1,1.2.6,1.8,1.8,0,0,1,.5.7c.1.1.1.3.2.4s.1.6.1.8Zm11.1,3.2c-1.5,0-2.3-1.6-2.3-3.4s.6-3.4,2.3-3.4,2.3,1.8,2.3,3.4S233,40.4,231.5,40.4Z"/><path class="cls-2" d="M108.8,26a2.4,2.4,0,0,1,1.3.4,1.9,1.9,0,0,1,1,1,3.3,3.3,0,0,1,.4,1.3,3.3,3.3,0,0,1-.4,1.4,3.2,3.2,0,0,1-1,1,3.1,3.1,0,0,1-1.3.3,2.5,2.5,0,0,1-2.4-1.3,3.3,3.3,0,0,1-.4-1.4,3.3,3.3,0,0,1,.4-1.3,2.4,2.4,0,0,1,1-1A2.5,2.5,0,0,1,108.8,26Zm0,.5-1.2.3a2,2,0,0,0-.8.8,2.3,2.3,0,0,0-.3,1.1,2.7,2.7,0,0,0,.3,1.2l.8.8,1.2.3,1.1-.3.8-.8a2.7,2.7,0,0,0,.3-1.2,2.3,2.3,0,0,0-.3-1.1,2,2,0,0,0-.8-.8Zm-1.2,3.7V27.3h1.7c.2.1.3.1.4.3a.6.6,0,0,1,.1.4,1.4,1.4,0,0,1-.2.6l-.6.2c.1.1.2.1.2.2l.5.6.3.5h-.6l-.2-.4a2.5,2.5,0,0,0-.5-.7H108v1.2Zm.4-1.6h1.2c.1-.1.1-.2.1-.4a.3.3,0,0,0-.1-.2H109c0-.1-.2-.1-.4-.1H108Z"/></svg>