<svg id="Layer_1" data-name="Layer 1" xmlns="http://www.w3.org/2000/svg" viewBox="0 0 251 71"><defs><style>.cls-1{fill:none;}.cls-2{fill:#5c2d91;}.cls-3{fill:#fff;}</style></defs><rect class="cls-1" width="251" height="71"/><circle class="cls-2" cx="212.5" cy="35.5" r="35.5"/><path class="cls-3" d="M210.7,27.4h-1.6a.9.9,0,0,0-.9.8V38.7h0a1.6,1.6,0,0,1-1.6,1.6h-3.2a1.6,1.6,0,0,1-1.6-1.6V28.2a.9.9,0,0,0-.8-.8h-1.6a.8.8,0,0,0-.8.8V38.7a1.7,1.7,0,0,1-1.7,1.6h-3.2a1.6,1.6,0,0,1-1.6-1.6V28.2a.9.9,0,0,0-.8-.8h-1.6a.8.8,0,0,0-.8.8V38.7a4.9,4.9,0,0,0,3.2,4.6,4.5,4.5,0,0,0,1.6.3h3.2a4.7,4.7,0,0,0,1.7-.3,5.4,5.4,0,0,0,1.6-1,4.4,4.4,0,0,0,1.6,1,4.1,4.1,0,0,0,1.6.3h3.2a4.1,4.1,0,0,0,1.6-.3,5,5,0,0,0,3.3-4.6V28.2A.9.9,0,0,0,210.7,27.4Zm25.1,3.5a6.4,6.4,0,0,0-2.1-2.5,5.7,5.7,0,0,0-3.1-1H219.3a5.1,5.1,0,0,0-2.2.5,5.5,5.5,0,0,0-2.5,2,5.8,5.8,0,0,0-1,3.2v4.8a6.1,6.1,0,0,0,2.5,4.7,5.8,5.8,0,0,0,3.2,1h11.3a5.8,5.8,0,0,0,5.1-3.3c0-.1.1-.2.1-.3a.5.5,0,0,0-.5-.7h-2.5a.4.4,0,0,0-.4.2,2.3,2.3,0,0,1-1.8.8H218.3a2.2,2.2,0,0,1-1-.9,2.3,2.3,0,0,1-.4-1.4v-.8h18.5a.7.7,0,0,0,.8-.8V33.1A5.4,5.4,0,0,0,235.8,30.9Zm-2.8,3H216.9v-.8a3.1,3.1,0,0,1,.1-1,2.2,2.2,0,0,1,.9-1,2.3,2.3,0,0,1,1.4-.4h12.2a3.1,3.1,0,0,1,1.1.9,3.3,3.3,0,0,1,.4,1.4Z"/><polygon class="cls-2" points="5.1 26.2 5.1 29.8 3 29.8 3 31.3 5.1 31.3 5.1 41 6.5 41 6.5 31.3 8.6 31.3 8.6 29.8 6.5 29.8 6.5 26.2 5.1 26.2"/><path class="cls-2" d="M19.2,34.6a5.8,5.8,0,0,0-1.5-2.8,4.3,4.3,0,0,0-2.8-.9,3.9,3.9,0,0,0-2.8,1,4.4,4.4,0,0,0-1.4,2.7Zm1.6,1.3H10.7A4.1,4.1,0,0,0,12,38.8,4.1,4.1,0,0,0,15,40a3.4,3.4,0,0,0,2.2-.7,4,4,0,0,0,1.6-1.8h1.6a6.4,6.4,0,0,1-2.2,2.9,5.7,5.7,0,0,1-3.2.9,5.3,5.3,0,0,1-4.1-1.7,5.5,5.5,0,0,1-1.7-4.2,5.7,5.7,0,0,1,1.6-4.2,5.8,5.8,0,0,1,4.3-1.7,5.4,5.4,0,0,1,4.1,1.8,6.5,6.5,0,0,1,1.6,4.5Z"/><rect class="cls-2" x="22.4" y="26.2" width="1.4" height="14.82"/><path class="cls-2" d="M35.6,34.6a5.8,5.8,0,0,0-1.5-2.8,4.3,4.3,0,0,0-2.8-.9,4,4,0,0,0-2.8,1,4.4,4.4,0,0,0-1.4,2.7Zm1.6,1.3H27.1a4.1,4.1,0,0,0,1.3,2.9,4.1,4.1,0,0,0,3,1.2,3.4,3.4,0,0,0,2.2-.7,4,4,0,0,0,1.6-1.8h1.6a7,7,0,0,1-2.1,2.9,6.3,6.3,0,0,1-3.3.9,5.3,5.3,0,0,1-4.1-1.7,5.9,5.9,0,0,1-1.7-4.2,5.7,5.7,0,0,1,1.6-4.2,6,6,0,0,1,4.3-1.7,5.2,5.2,0,0,1,4.1,1.8,6.1,6.1,0,0,1,1.6,4.5Z"/><path class="cls-2" d="M47.8,33.3a5.7,5.7,0,0,0-1.6-1.8,4.4,4.4,0,0,0-2.3-.6A3.7,3.7,0,0,0,41,32.2a4.7,4.7,0,0,0-1.2,3.2A4.8,4.8,0,0,0,41,38.7,4.2,4.2,0,0,0,44,40a3.9,3.9,0,0,0,2.3-.7,4.5,4.5,0,0,0,1.5-1.8h1.6a5.5,5.5,0,0,1-2.1,2.8,5.2,5.2,0,0,1-3.3,1,5.4,5.4,0,0,1-4.1-1.7,5.6,5.6,0,0,1-1.6-4.1,6,6,0,0,1,5.8-6,5.8,5.8,0,0,1,3.2,1,6.7,6.7,0,0,1,2.1,2.8Z"/><path class="cls-2" d="M52.4,35.4a4.8,4.8,0,0,0,1.2,3.3A4.2,4.2,0,0,0,56.7,40a4.2,4.2,0,0,0,3-1.3,5.1,5.1,0,0,0,0-6.6,4.5,4.5,0,0,0-3.2-1.2,3.7,3.7,0,0,0-2.9,1.3,4.5,4.5,0,0,0-1.2,3.2m-1.5,0a6,6,0,0,1,1.6-4.2,5.8,5.8,0,0,1,4-1.7,5.9,5.9,0,0,1,4.2,1.7,5.7,5.7,0,0,1,1.7,4.1,6.1,6.1,0,0,1-1.7,4.3,5.2,5.2,0,0,1-4,1.7,5.5,5.5,0,0,1-4.2-1.7,5.7,5.7,0,0,1-1.6-4.2"/><path class="cls-2" d="M72.9,31.6a4.1,4.1,0,0,1,1.7-1.5,5.4,5.4,0,0,1,2.2-.5A4,4,0,0,1,80.2,31a7.3,7.3,0,0,1,1,4.4V41H79.8V35.1a5.4,5.4,0,0,0-.7-3.2,3,3,0,0,0-2.4-.9,3.3,3.3,0,0,0-1.7.4,2.3,2.3,0,0,0-1.1,1.1,4.2,4.2,0,0,0-.4,1,11,11,0,0,0-.1,2.1V41H72V34.8a4.6,4.6,0,0,0-.7-2.9,3.3,3.3,0,0,0-2.5-.9,3.3,3.3,0,0,0-1.7.4A2.3,2.3,0,0,0,66,32.5a4.2,4.2,0,0,0-.4,1,11,11,0,0,0-.1,2.1V41H64.1V29.8h1.4v1.3A3.3,3.3,0,0,1,67,30a4.2,4.2,0,0,1,2-.4,5.9,5.9,0,0,1,2.3.5,4.6,4.6,0,0,1,1.6,1.5"/><path class="cls-2" d="M91.7,34.2a3,3,0,0,0-1.1-1.7,3.2,3.2,0,0,0-2-.6,3.3,3.3,0,0,0-1.9.6,3.9,3.9,0,0,0-1.1,1.7Zm-6.2,2.1a2.7,2.7,0,0,0,1,1.9,3.5,3.5,0,0,0,3.7.3,2.2,2.2,0,0,0,1.1-1h2.8A6,6,0,0,1,92,40.3a5.2,5.2,0,0,1-3.3,1,5.5,5.5,0,0,1-4.2-1.7,7.6,7.6,0,0,1-1.2-1.9,6.2,6.2,0,0,1-.4-2.3,5.7,5.7,0,0,1,.4-2.2,4.9,4.9,0,0,1,1.1-1.8,6.6,6.6,0,0,1,2-1.4,5.4,5.4,0,0,1,2.2-.5,5,5,0,0,1,2.7.7A5.5,5.5,0,0,1,93.5,32a8,8,0,0,1,.8,1.6,12.5,12.5,0,0,1,.2,2.1v.6Z"/><path class="cls-2" d="M98.1,35.2a3.7,3.7,0,0,0,.9,2.5,3.3,3.3,0,0,0,2.4,1,3.4,3.4,0,0,0,3.4-3.3,3.7,3.7,0,0,0-1-2.5,3.4,3.4,0,0,0-4.8,0,3.2,3.2,0,0,0-.9,2.3m6.9-5.4h2.3v9.4a6.4,6.4,0,0,1-1.5,4.5,5.3,5.3,0,0,1-4.3,1.7,6.4,6.4,0,0,1-3.4-.9,6.3,6.3,0,0,1-2-2.9h2.6a2.5,2.5,0,0,0,1.1,1.2,3.3,3.3,0,0,0,1.7.4,3.2,3.2,0,0,0,2.5-1,3.3,3.3,0,0,0,1-2.6v-.2a3.8,3.8,0,0,1-1.7,1.2,5.2,5.2,0,0,1-2.1.4,5.4,5.4,0,0,1-2.2-.4,4.5,4.5,0,0,1-1.7-1.1,5.5,5.5,0,0,1-1.4-1.9,5.4,5.4,0,0,1-.4-2.2,5.7,5.7,0,0,1,1.6-4.2,5.3,5.3,0,0,1,4.1-1.7,6.5,6.5,0,0,1,2,.4,4.6,4.6,0,0,1,1.8,1.3Z"/><polygon class="cls-2" points="108.2 29.8 110.9 29.8 113.7 37.7 116.7 29.8 119.4 29.8 113.3 44.7 110.7 44.7 112.2 40.7 108.2 29.8"/><path class="cls-2" d="M122.7,35.4a3.3,3.3,0,0,0,1,2.4,3,3,0,0,0,2.3.9,3.1,3.1,0,0,0,2.2-.9,3.3,3.3,0,0,0,1-2.4,2.9,2.9,0,0,0-1-2.3,3,3,0,0,0-2.4-1,2.8,2.8,0,0,0-2.2,1,3.2,3.2,0,0,0-.9,2.3m-.1,4.7v4.6h-2.5V29.8h2.5v1a7.5,7.5,0,0,1,1.7-1,5.2,5.2,0,0,1,1.8-.2,6.4,6.4,0,0,1,2,.3,4.2,4.2,0,0,1,1.7,1,4.3,4.3,0,0,1,1.5,2,5.8,5.8,0,0,1,.6,2.6,6.9,6.9,0,0,1-.5,2.4,5.2,5.2,0,0,1-1.4,1.9,4.2,4.2,0,0,1-1.8,1.1,4.6,4.6,0,0,1-2.1.4,5.8,5.8,0,0,1-1.9-.3,5.1,5.1,0,0,1-1.6-.9"/><polygon class="cls-2" points="134.5 26.2 134.5 29.8 132.8 29.8 132.8 32.2 134.5 32.2 134.5 41 137.1 41 137.1 32.2 138.8 32.2 138.8 29.8 137.1 29.8 137.1 26.2 134.5 26.2"/><path class="cls-2" d="M142.2,25.6a3.5,3.5,0,0,1,1.4.3,3.6,3.6,0,0,1,1,1.1,3.3,3.3,0,0,1,.4,1.3,3.3,3.3,0,0,1-.4,1.4,2.4,2.4,0,0,1-1,1,3.7,3.7,0,0,1-1.4.4,2.8,2.8,0,0,1-1.3-.4,2.7,2.7,0,0,1-1.1-1,3.2,3.2,0,0,1-.3-1.4,3.1,3.1,0,0,1,.3-1.3,2.9,2.9,0,0,1,1.1-1.1A3.1,3.1,0,0,1,142.2,25.6Zm0,.4a2.3,2.3,0,0,0-1.1.3,2,2,0,0,0-.9.9,2.3,2.3,0,0,0-.3,1.1,2.7,2.7,0,0,0,.3,1.2,2.4,2.4,0,0,0,.9.8,2,2,0,0,0,1.1.3,2.7,2.7,0,0,0,1.2-.3,3,3,0,0,0,.8-.8,2.7,2.7,0,0,0,.3-1.2,2.3,2.3,0,0,0-.3-1.1,2,2,0,0,0-.9-.9A2,2,0,0,0,142.2,26ZM141,29.8V26.9h1.8a.5.5,0,0,1,.4.3c0,.1.1.2.1.4a1.4,1.4,0,0,1-.2.6l-.7.2.3.2a1.5,1.5,0,0,1,.4.6l.4.5h-.6l-.2-.4-.5-.7h-.7v1.2Zm.5-1.6h1.1a.5.5,0,0,0,.2-.4v-.2c0-.1-.1-.1-.2-.2h-1Z"/></svg>